<svg xmlns="http://www.w3.org/2000/svg" width="33" height="33" fill="none">
  <g clip-path="url(#clip0)">
    <path fill="#DCD4B6" d="M33 26.66c0 3.5-2.84 6.34-6.34 6.34H6.34A6.34 6.34 0 0 1 0 26.66V6.34C0 2.84 2.84 0 6.34 0h20.32C30.16 0 33 2.84 33 6.34v20.32z"/>
    <path fill="#D3CAAC" d="M33 26.66V14.62l-6.2-6.73v3.44l-.55 13.75H6.2L14.1 33h12.56c3.5 0 6.34-2.84 6.34-6.34z"/>
    <path fill="#9F4456" d="M25.66 7.55H7.34a2.64 2.64 0 0 0-2.64 2.63v12.64a2.64 2.64 0 0 0 2.64 2.63h18.32a2.64 2.64 0 0 0 2.64-2.63V10.18a2.64 2.64 0 0 0-2.64-2.63zM9.26 22.37c0 .31-.25.56-.56.56H7.08a.56.56 0 0 1-.55-.56V20.9c0-.3.25-.56.55-.56H8.7c.3 0 .56.25.56.56v1.47zm0-3.42c0 .3-.25.56-.56.56H7.08a.56.56 0 0 1-.55-.56v-1.48c0-.3.25-.55.55-.55H8.7c.3 0 .56.25.56.55v1.48zm0-3.42c0 .3-.25.55-.56.55H7.08a.56.56 0 0 1-.55-.55v-1.48c0-.3.25-.56.55-.56H8.7c.3 0 .56.25.56.56v1.48zm0-3.43c0 .3-.25.56-.56.56H7.08a.56.56 0 0 1-.55-.56v-1.47c0-.31.25-.56.55-.56H8.7c.3 0 .56.25.56.56v1.47zm17.21 10.27c0 .31-.25.56-.55.56H24.3a.56.56 0 0 1-.56-.56V20.9c0-.3.25-.56.56-.56h1.62c.3 0 .55.25.55.56v1.47zm0-3.42c0 .3-.25.56-.55.56H24.3a.56.56 0 0 1-.56-.56v-1.48c0-.3.25-.55.56-.55h1.62c.3 0 .55.25.55.55v1.48zm0-3.42c0 .3-.25.55-.55.55H24.3a.56.56 0 0 1-.56-.55v-1.48c0-.3.25-.56.56-.56h1.62c.3 0 .55.25.55.56v1.48zm0-3.43c0 .3-.25.56-.55.56H24.3a.56.56 0 0 1-.56-.56v-1.47c0-.31.25-.56.56-.56h1.62c.3 0 .55.25.55.56v1.47z"/>
    <path fill="#4D3D4D" d="M22.12 7.55H10.88v17.9h11.24V7.55z"/>
    <path fill="#9F4456" d="M22.98 16.73c0 .3-.25.55-.56.55H10.58a.56.56 0 0 1-.56-.55v-.46c0-.3.25-.55.56-.55h11.84c.31 0 .56.24.56.55v.46z"/>
  </g>
  <defs>
    <clipPath id="clip0">
      <path fill="#fff" d="M0 0h33v33H0z"/>
    </clipPath>
  </defs>
</svg>